<mxfile host="65bd71144e">
    <diagram id="orzYD0BzHYB-IS-QOJIN" name="sensor">
        <mxGraphModel dx="1181" dy="755" grid="1" gridSize="10" guides="1" tooltips="1" connect="1" arrows="1" fold="1" page="1" pageScale="1" pageWidth="827" pageHeight="1169" math="0" shadow="0">
            <root>
                <mxCell id="0"/>
                <mxCell id="1" parent="0"/>
                <mxCell id="2" value="Frontend React" style="swimlane;html=1;fillColor=#dae8fc;" vertex="1" parent="1">
                    <mxGeometry x="20" y="20" width="300" height="300" as="geometry"/>
                </mxCell>
                <mxCell id="3" value="SensorTable.jsx\n+ Listagem\n+ Filtro\n+ Ações" style="rounded=1;whiteSpace=wrap;html=1;" vertex="1" parent="2">
                    <mxGeometry x="20" y="40" width="260" height="60" as="geometry"/>
                </mxCell>
                <mxCell id="4" value="SensorForm.jsx\n+ Criar/Editar sensor" style="rounded=1;whiteSpace=wrap;html=1;" vertex="1" parent="2">
                    <mxGeometry x="20" y="120" width="260" height="60" as="geometry"/>
                </mxCell>
                <mxCell id="5" value="SensorSimulationControls.jsx\n+ Intervalo / ruído\n+ Aplicar simulação" style="rounded=1;whiteSpace=wrap;html=1;" vertex="1" parent="2">
                    <mxGeometry x="20" y="200" width="260" height="70" as="geometry"/>
                </mxCell>
                <mxCell id="6" value="Backend Go" style="swimlane;html=1;fillColor=#fff2cc;" vertex="1" parent="1">
                    <mxGeometry x="350" y="20" width="340" height="300" as="geometry"/>
                </mxCell>
                <mxCell id="7" value="handlers/sensor_handler.go\n+ GET /sensores\n+ POST /create\n+ PUT /update\n+ DELETE /delete\n+ POST /configurar" style="rounded=1;whiteSpace=wrap;html=1;" vertex="1" parent="6">
                    <mxGeometry x="20" y="40" width="300" height="90" as="geometry"/>
                </mxCell>
                <mxCell id="8" value="main.go\n+ iniciarSimulacaoLeituras()\n+ rotas\n+ CORS" style="rounded=1;whiteSpace=wrap;html=1;" vertex="1" parent="6">
                    <mxGeometry x="20" y="140" width="300" height="60" as="geometry"/>
                </mxCell>
                <mxCell id="9" value="Banco de dados (em memória)\nvar Sensores []Sensor" style="rounded=1;whiteSpace=wrap;html=1;fillColor=#f5f5f5;" vertex="1" parent="6">
                    <mxGeometry x="20" y="240" width="300" height="50" as="geometry"/>
                </mxCell>
                <mxCell id="14" style="endArrow=block;html=1;" edge="1" parent="6" source="7" target="9">
                    <mxGeometry relative="1" as="geometry"/>
                </mxCell>
                <mxCell id="15" style="endArrow=block;html=1;entryX=0.393;entryY=1.05;entryDx=0;entryDy=0;entryPerimeter=0;exitX=0.25;exitY=0;exitDx=0;exitDy=0;" edge="1" parent="6" source="9" target="8">
                    <mxGeometry relative="1" as="geometry"/>
                </mxCell>
                <mxCell id="10" value="NATS Broker\nMensagens de atualização\ntópico: sensores.atualizacao" style="rounded=1;whiteSpace=wrap;html=1;fillColor=#e1d5e7;" vertex="1" parent="1">
                    <mxGeometry x="720" y="100" width="200" height="100" as="geometry"/>
                </mxCell>
                <mxCell id="11" style="endArrow=block;html=1;" edge="1" parent="1" source="5" target="7">
                    <mxGeometry relative="1" as="geometry"/>
                </mxCell>
                <mxCell id="12" style="endArrow=block;html=1;" edge="1" parent="1" source="3" target="7">
                    <mxGeometry relative="1" as="geometry"/>
                </mxCell>
                <mxCell id="13" style="endArrow=block;html=1;" edge="1" parent="1" source="8" target="10">
                    <mxGeometry relative="1" as="geometry"/>
                </mxCell>
            </root>
        </mxGraphModel>
    </diagram>
</mxfile>